<svg xmlns="http://www.w3.org/2000/svg" viewBox="0 0 32 32">
  <rect width="32" height="32" rx="6" fill="#3d322a"/>
  <!-- "sg" traced from the Pacifico glyph outlines (same font as the app
       header wordmark), so it renders identically everywhere instead of
       depending on a browser loading a web font inside a favicon context. -->
  <g transform="translate(3.28 16.28) scale(0.2534)" fill="#f97316">
    <path d="M23.40 2.70Q18.20 2.70 15.45 0.30Q12.70-2.10 12.70-5.10Q12.70-7.70 14.60-9.60Q16.50-11.50 20.20-11.50Q21.50-11.50 23.25-11.25Q25-11 25.90-10.90Q25.80-13.50 24.75-15.80Q23.70-18.10 22.10-20.25Q20.50-22.40 19.10-24Q16-18.10 12.95-14.20Q9.90-10.30 6.30-6.80Q4.50-5 2.50-5Q0.90-5-0.10-6.15Q-1.10-7.30-1.10-9Q-1.10-11 0.30-12.70L1.60-14.30Q7.10-21.10 9.90-25.50Q11.60-28.40 13.90-33.25Q16.20-38.10 18.40-43.30Q20.30-47.70 26.30-47.70Q29.10-47.70 30.20-47.20Q31.30-46.70 31.30-45.60Q31.30-45 30.90-43.70Q30.50-42.40 29.80-41.10Q28-37.50 28-35Q28-33.50 29.05-31.70Q30.10-29.90 32.30-27.20Q35.50-23 37.15-20.05Q38.80-17.10 38.80-13.60Q38.80-12.60 38.60-10.80Q43.50-12.70 50.10-20.90Q51.30-22.30 52.80-22.30Q54.10-22.30 54.85-21.10Q55.60-19.90 55.60-17.80Q55.60-14 53.70-11.60Q48.70-5.40 44.15-3.15Q39.60-0.90 32.90-0.70Q28.90 2.70 23.40 2.70M98.70-22.10Q100-22.10 100.75-20.85Q101.50-19.60 101.50-17.70Q101.50-15.40 100.80-14.10Q100.10-12.80 98.60-11.80Q90-6 86-3.20L79.60 1.10Q75.80 21.80 69.65 33.65Q63.50 45.50 54 45.50Q48.90 45.50 45.70 42.35Q42.50 39.20 42.50 34.10Q42.50 27 48.10 18.85Q53.70 10.70 69.10-1.20L69.70-5.10Q68-2.40 65.25-0.95Q62.50 0.50 59.80 0.50Q53.60 0.50 49.90-4Q46.20-8.50 46.20-15.80Q46.20-23.80 49.90-30.95Q53.60-38.10 59.75-42.45Q65.90-46.80 72.80-46.80Q75-46.80 75.75-45.95Q76.50-45.10 77-42.90Q78.90-43.30 81.40-43.30Q83.90-43.30 84.95-42.55Q86-41.80 86-39.60Q86-38.40 85.90-37.70Q85.50-34.60 83.40-22Q83-19.60 82.55-16.75Q82.10-13.90 81.60-10.70Q89.30-16.70 96.40-21.30Q97.70-22.10 98.70-22.10M63.40-9.60Q65.70-9.60 67.80-12.40Q69.90-15.20 70.80-20.40L74-37.50Q69.90-37.40 66.40-34.35Q62.90-31.30 60.80-26.30Q58.70-21.30 58.70-15.70Q58.70-12.60 59.95-11.10Q61.20-9.60 63.40-9.60M55.10 35.80Q57.60 35.80 60.75 29.80Q63.90 23.80 66.80 10.70Q59.10 17.30 55.70 22.60Q52.30 27.90 52.30 31.90Q52.30 33.60 52.95 34.70Q53.60 35.80 55.10 35.80"/>
  </g>
</svg>
